<svg xmlns="http://www.w3.org/2000/svg" version="1.1" xmlns:xlink="http://www.w3.org/1999/xlink" viewBox="0 0 200 200"><rect width="200" height="200" fill="url('#gradient')"></rect><defs><linearGradient id="gradient" gradientTransform="rotate(360 0.5 0.5)"><stop offset="0%" stop-color="#4a9dbc"></stop><stop offset="100%" stop-color="#a7ab24"></stop></linearGradient></defs><g><g fill="#131a21" transform="matrix(3.6666003580664412,0,0,3.6666003580664412,8.717522881413771,125.86852913090645)" stroke="#00a2ff" stroke-width="0.15"><path d="M12.24-14.22L12.24-11.57L7.97-11.57L7.97 0L4.54 0L4.54-11.57L0.35-11.57L0.35-14.22L12.24-14.22ZM13.05-3.19L13.05-3.19Q13.83-3.19 14.35-2.73Q14.86-2.27 14.86-1.54Q14.86-0.82 14.35-0.36Q13.83 0.11 13.05 0.11L13.05 0.11Q12.26 0.11 11.74-0.36Q11.23-0.83 11.23-1.54Q11.23-2.26 11.74-2.72Q12.26-3.19 13.05-3.19ZM20.63-14.22L20.63-2.64L26.60-2.64L26.60 0L17.21 0L17.21-14.22L20.63-14.22ZM29.93-3.19L29.93-3.19Q30.71-3.19 31.23-2.73Q31.75-2.27 31.75-1.54Q31.75-0.82 31.23-0.36Q30.71 0.11 29.93 0.11L29.93 0.11Q29.14 0.11 28.63-0.36Q28.12-0.83 28.12-1.54Q28.12-2.26 28.63-2.72Q29.14-3.19 29.93-3.19ZM34.09-14.22L38.59-14.22L41.77-4.33L44.93-14.22L49.44-14.22L49.44 0L46.01 0L46.01-3.32L46.34-10.12L42.90 0L40.63 0L37.19-10.13L37.52-3.32L37.52 0L34.09 0L34.09-14.22Z"></path></g></g></svg>
